<svg width="31" height="31" viewBox="0 0 31 31" fill="none" xmlns="http://www.w3.org/2000/svg">
<path d="M27.0583 11.3854C27.1361 10.9686 27.1754 10.5455 27.176 10.1215C27.1712 6.18367 23.9751 2.99525 20.0373 3.00001C17.0396 3.00361 14.3643 4.88181 13.3426 7.70002C11.5133 6.97182 9.43997 7.86441 8.71172 9.69373C8.64869 9.85207 8.59709 10.0147 8.55735 10.1804C5.63642 10.6172 3.6227 13.3393 4.05955 16.2602C4.45132 18.8798 6.70182 20.8179 9.35056 20.8168H13.8069C14.2992 20.8168 14.6982 20.4178 14.6982 19.9256C14.6982 19.4333 14.2992 19.0343 13.8069 19.0343H9.35056C7.3816 19.0343 5.78546 17.4381 5.78546 15.4692C5.78546 13.5002 7.3816 11.9041 9.35056 11.9041C9.84282 11.9041 10.2419 11.505 10.2419 11.0128C10.2435 10.0283 11.0428 9.23156 12.0273 9.23318C12.4929 9.23396 12.9397 9.41684 13.2721 9.74271C13.6227 10.0882 14.187 10.0841 14.5325 9.73352C14.6623 9.60187 14.7479 9.43319 14.7775 9.25072C15.2613 6.34018 18.0129 4.37295 20.9234 4.85674C23.834 5.34053 25.8012 8.09216 25.3174 11.0027C25.2886 11.1762 25.2511 11.3483 25.2053 11.5181C25.1029 11.8901 25.2514 12.2858 25.5735 12.4985C27.2141 13.5871 27.6616 15.7996 26.573 17.4402C25.9141 18.4332 24.8026 19.0313 23.6109 19.0342H20.9371C20.4448 19.0342 20.0458 19.4332 20.0458 19.9255C20.0458 20.4177 20.4448 20.8167 20.9371 20.8167H23.6109C26.5643 20.814 28.9562 18.4175 28.9534 15.464C28.952 13.8921 28.2589 12.4003 27.0583 11.3854Z" fill="#2CA2FB"/>
<path d="M22.4382 21.9692C22.0928 21.6357 21.5453 21.6357 21.1999 21.9692L18.2632 24.9042V11.9041C18.2632 11.4119 17.8641 11.0128 17.3719 11.0128C16.8796 11.0128 16.4806 11.4119 16.4806 11.9041V24.9042L13.5456 21.9692C13.1915 21.6272 12.6273 21.637 12.2854 21.9911C11.9518 22.3365 11.9518 22.884 12.2854 23.2294L16.7417 27.6858C17.0893 28.0342 17.6537 28.035 18.0021 27.6873C18.0027 27.6868 18.0032 27.6863 18.0038 27.6858L22.4601 23.2294C22.8021 22.8754 22.7923 22.3112 22.4382 21.9692Z" fill="#2CA2FB"/>
</svg>
