<svg width="33" height="29" viewBox="0 0 33 29" fill="none" xmlns="http://www.w3.org/2000/svg">
<path d="M16.7597 5.29292C18.2213 5.29292 19.4062 4.10806 19.4062 2.64646C19.4062 1.18486 18.2213 0 16.7597 0C15.2981 0 14.1133 1.18486 14.1133 2.64646C14.1133 4.10806 15.2981 5.29292 16.7597 5.29292Z" fill="#2CA2FB"/>
<path d="M20.1221 8.60571C19.1468 7.87242 17.9842 7.4848 16.7599 7.4848C15.5356 7.4848 14.373 7.87242 13.3977 8.60571C12.6246 9.18703 12.0102 9.96906 11.6245 10.8495L16.7599 15.985L21.8954 10.8495C21.5096 9.96906 20.8952 9.18703 20.1221 8.60571Z" fill="#2CA2FB"/>
<path d="M15.6637 28.8544V17.9889L7.79335 10.1186C7.25887 9.58416 6.38924 9.58424 5.85468 10.1186C5.3202 10.6531 5.3202 11.5228 5.85468 12.0572L10.8295 17.0321L9.27959 18.5821L4.30473 13.6072C3.60972 12.9122 3.26244 11.999 3.26288 11.0861H3.2612V2.88735C3.2612 2.1314 2.6462 1.51648 1.89033 1.51648C1.13446 1.51648 0.519531 2.1314 0.519531 2.88735V14.8976L7.47288 24.811V28.8544H15.6637Z" fill="#2CA2FB"/>
<path d="M32.9996 2.88735C32.9996 2.1314 32.3847 1.51648 31.6288 1.51648C30.873 1.51648 30.258 2.1314 30.258 2.88735V11.0861H30.2563C30.2567 11.999 29.9094 12.9122 29.2144 13.6072L24.2396 18.5821L22.6896 17.0321L27.6645 12.0572C28.1989 11.5228 28.1989 10.6531 27.6645 10.1186C27.13 9.58409 26.2604 9.58409 25.7258 10.1186L17.8555 17.9889V28.8544H26.0463V24.811L32.9996 14.8976V2.88735Z" fill="#2CA2FB"/>
</svg>
